<svg version="1.1" id="Layer_1" xmlns="http://www.w3.org/2000/svg" xmlns:xlink="http://www.w3.org/1999/xlink" x="0px" y="0px"
	 width="100%" viewBox="0 0 976 976" enable-background="new 0 0 976 976" xml:space="preserve">
<path fill="#000000" opacity="1.000000" stroke="none" 
	d="
M506.653076,934.845703 
	C484.181366,935.541809 462.223480,934.169006 440.245605,933.606079 
	C414.930420,932.957642 389.601746,932.585693 364.280823,933.816040 
	C337.979401,935.094055 311.689117,935.734863 285.600922,930.981018 
	C283.464539,930.591675 280.950806,930.327332 280.321289,927.864929 
	C279.005341,922.717224 275.925201,923.985840 272.674316,925.414734 
	C271.211670,926.057678 270.023865,927.571106 267.998840,926.784485 
	C266.387421,922.597351 269.588806,919.236938 270.146759,915.439392 
	C263.636017,911.919617 263.636017,911.919617 269.872650,904.263733 
	C267.753845,900.661255 259.983307,906.672424 260.256470,898.533508 
	C255.111252,896.977173 251.044357,901.116150 246.034195,901.952820 
	C245.126205,898.234436 247.415375,896.338989 249.588058,894.255554 
	C252.056793,891.888123 256.184052,890.762939 255.696793,885.995667 
	C255.619141,885.235779 257.470734,884.200867 258.522064,883.415894 
	C267.340973,876.831421 277.741028,876.326599 288.081177,876.144714 
	C299.902344,875.936707 311.696411,876.763611 323.443817,878.235107 
	C327.398590,878.730530 331.415405,879.013611 335.397156,878.952942 
	C344.143860,878.819763 348.365295,874.443787 348.693329,865.552063 
	C349.057404,855.684326 347.616699,845.950989 346.165771,836.254456 
	C341.604889,805.773804 338.711304,775.175537 348.845093,745.364685 
	C362.064178,706.477905 386.176453,677.479736 427.420563,666.367065 
	C449.246948,660.486206 470.697021,664.192322 491.641510,671.644531 
	C493.787354,672.408081 495.963318,673.087036 498.374969,673.303833 
	C492.055115,666.764771 484.436493,662.236938 476.055695,659.177185 
	C450.488068,649.842468 425.624207,653.096802 401.344147,664.046936 
	C392.040619,668.242798 383.535553,673.814270 375.295288,679.794922 
	C374.115906,680.650940 373.170074,682.120483 371.410156,681.441528 
	C369.393311,680.663513 369.803528,678.784790 369.616028,677.169373 
	C368.726959,669.509705 367.226959,661.919250 363.368866,655.213257 
	C360.070557,649.480286 360.941772,644.812744 364.374542,639.517761 
	C377.605103,619.110046 390.693604,598.607117 402.453613,577.291626 
	C410.277985,563.109680 416.870575,548.387878 422.330322,533.149902 
	C422.592102,532.419250 422.633972,531.609741 422.157104,530.627136 
	C419.641998,536.139893 417.166290,541.671082 414.605164,547.162415 
	C401.534515,575.187073 384.741394,601.048157 368.110931,626.999878 
	C363.708862,633.869202 359.140686,640.632080 354.651886,647.445862 
	C349.861267,654.717773 349.482391,662.895813 350.483398,671.073486 
	C352.677521,688.998718 351.146790,706.592896 346.821533,724.029724 
	C346.141296,726.771912 345.355042,729.492126 344.790588,732.257751 
	C344.033569,735.967163 342.994232,739.202209 338.065308,737.796143 
	C336.400696,742.726135 336.652985,747.610046 335.823822,752.316833 
	C334.665741,758.891052 333.763245,759.371521 327.659180,757.401123 
	C326.522675,761.492371 331.694916,764.329224 330.066406,768.536316 
	C320.940186,768.268433 311.882996,761.213867 309.102203,751.916199 
	C306.713501,743.929443 305.020447,735.658875 304.884064,727.383972 
	C304.655457,713.509033 303.339081,699.845093 300.471588,686.281982 
	C298.580292,677.336121 299.584747,668.326355 303.895691,660.497742 
	C314.627197,641.009338 320.225342,619.782532 326.317963,598.683960 
	C332.453888,577.435364 339.292175,556.374207 343.205811,534.535461 
	C347.843689,508.655304 348.937500,482.946472 339.794617,457.695648 
	C338.679810,454.616852 337.276672,451.642426 335.645203,448.743744 
	C336.323273,455.375580 337.754059,461.814819 338.556091,468.368622 
	C340.491608,484.184235 339.926025,499.935577 337.909180,515.654541 
	C336.619629,525.704834 334.854401,535.694031 333.310150,545.711792 
	C333.027435,547.545776 332.833466,549.600281 330.610718,549.985657 
	C328.644135,550.326599 327.801147,548.529846 326.841919,547.187134 
	C305.712067,517.610168 292.754761,484.927216 288.543701,448.697906 
	C284.801117,416.499359 290.580292,385.362335 298.222412,354.437531 
	C304.679138,328.309509 309.389923,302.053406 307.667511,274.995361 
	C306.882874,262.669312 305.006531,250.491989 301.179016,238.746277 
	C296.300476,223.775024 286.004272,213.936401 271.099518,209.025085 
	C256.250854,204.132233 240.972946,200.533447 226.755814,193.760910 
	C212.138199,186.797607 199.403412,177.829330 192.086853,162.756531 
	C190.921219,160.355209 188.783524,159.118347 186.602051,157.849030 
	C181.456238,154.854782 178.158600,150.412262 176.618378,144.670319 
	C174.293900,136.004684 176.481186,130.702347 184.366257,126.320961 
	C194.975723,120.425774 206.297455,115.737457 215.485275,107.469902 
	C223.112808,100.606384 228.559158,92.476410 231.020248,82.407654 
	C232.176315,77.677948 231.622177,73.184708 230.043182,68.686653 
	C229.387970,66.820107 228.467438,64.576233 230.574432,63.231201 
	C232.446304,62.036263 233.955444,63.920589 235.450485,64.853699 
	C236.839127,65.720413 237.992966,67.011658 240.103104,67.148796 
	C240.967133,64.053032 237.096939,60.907299 240.115250,57.816479 
	C244.713730,58.204285 245.915939,64.380058 250.890244,64.217384 
	C252.106689,62.154743 250.435242,60.399601 250.314560,58.517536 
	C250.227661,57.162647 249.811951,55.795696 251.151474,54.892994 
	C252.541412,53.956314 253.736938,54.708977 254.690323,55.720272 
	C259.343475,60.656090 264.895538,60.640804 270.837708,58.793095 
	C290.442474,52.697002 310.360901,48.174717 330.938782,47.107498 
	C348.378113,46.203056 365.390869,48.638241 380.806763,56.930771 
	C390.104095,61.932022 399.220459,64.154655 409.747803,63.907616 
	C423.059845,63.595222 433.361237,70.207405 440.030975,81.804436 
	C445.451385,91.229103 446.160950,101.698936 445.783112,112.281616 
	C445.411682,122.686104 441.198639,131.072723 433.064880,137.779739 
	C425.461395,144.049500 425.951538,152.518539 427.747650,161.219574 
	C430.038177,172.315781 431.689697,183.502869 431.352448,194.898056 
	C430.079407,237.913162 441.265198,277.845612 461.017609,315.730621 
	C476.406891,345.247223 495.773712,372.158081 515.100037,399.097046 
	C543.438354,438.598083 568.953796,479.705139 587.579163,524.800171 
	C600.780579,556.763062 610.038513,589.866821 616.314636,623.834412 
	C623.936340,665.084412 626.313477,706.736023 625.132141,748.583923 
	C624.446716,772.863770 622.062500,797.043640 618.662781,821.112000 
	C617.942871,826.208130 617.424133,831.365723 617.307861,836.506226 
	C617.130554,844.348877 620.371521,849.029053 627.918945,851.534424 
	C637.980652,854.874512 648.350464,854.865601 658.448120,852.040405 
	C687.546021,843.899109 710.882507,826.869385 729.401794,803.452698 
	C749.217163,778.397156 758.901306,749.548889 757.538391,717.501709 
	C756.767334,699.369263 751.362854,682.173523 744.530212,665.435852 
	C733.453369,638.301270 718.342957,613.396179 702.348572,588.976990 
	C701.801147,588.141296 701.193848,587.342346 700.685425,586.484131 
	C699.993774,585.316772 699.319275,584.021973 700.330383,582.782837 
	C701.322876,581.566406 702.700562,581.858826 704.020264,582.308289 
	C711.446472,584.838074 718.684692,587.787354 725.479980,591.755554 
	C748.508423,605.203491 765.622253,624.541321 779.704041,646.748596 
	C797.645752,675.043152 806.771484,706.104675 806.141174,739.575378 
	C805.161011,791.627869 783.941956,834.561218 745.241333,868.924988 
	C716.522583,894.425598 682.328430,907.564819 644.552063,912.436096 
	C628.514587,914.504089 612.385071,915.015869 596.301575,916.283447 
	C585.340576,917.147339 574.803711,918.307251 564.958618,924.595459 
	C552.410461,932.610291 537.609741,933.443237 523.089722,934.251648 
	C517.773926,934.547668 512.445984,934.626160 506.653076,934.845703 
M278.521484,127.471779 
	C285.009888,131.302216 290.617889,128.961166 296.674988,124.768181 
	C305.479156,119.972038 314.816650,116.520576 325.264709,114.240715 
	C316.328949,106.770874 307.405762,101.110870 297.485291,97.057487 
	C279.362000,89.652542 259.959717,100.935555 256.591827,121.376633 
	C264.269623,121.219566 270.883453,124.982544 278.521484,127.471779 
M311.766876,194.685944 
	C318.576721,195.446594 325.355560,195.550140 332.118805,194.126068 
	C347.650482,190.855698 359.771027,181.970779 370.062469,170.485626 
	C379.941559,159.460663 391.835388,152.056885 406.043945,148.204178 
	C409.079102,147.381165 412.107697,146.533951 416.126373,145.425659 
	C413.722565,144.614944 412.467377,144.186600 411.208984,143.768051 
	C404.034393,141.381775 403.089569,138.802795 407.230164,132.481522 
	C409.419342,129.139359 411.812042,125.931152 414.051270,122.620789 
	C414.785828,121.534882 415.973419,119.834183 414.901825,119.021988 
	C411.635254,116.546127 412.238007,113.199532 412.672607,108.699997 
	C410.378784,112.718376 409.596008,116.345856 405.567902,117.810829 
	C403.906219,113.032501 406.609894,108.449318 404.913849,103.579758 
	C404.688690,107.076096 403.276154,108.195793 400.591156,106.186508 
	C398.374603,110.666382 398.719696,115.926987 393.622253,120.177696 
	C394.567474,113.127304 396.876343,106.943893 390.659821,102.437714 
	C387.678009,104.563049 386.576965,108.917236 382.860138,110.868637 
	C380.718140,108.095795 384.050873,105.828499 383.047729,102.684113 
	C382.183441,104.281174 381.634338,105.261452 381.116516,106.257988 
	C375.359711,117.336479 370.164276,128.747833 362.416809,138.667053 
	C345.596863,160.202072 324.757416,171.394577 296.639496,164.657074 
	C287.928223,162.569717 278.970612,162.792999 270.117737,164.131714 
	C278.419098,165.940323 286.998291,166.650269 293.905487,172.477112 
	C287.474762,171.789398 281.191925,170.527725 274.812042,169.901291 
	C268.268127,169.258789 261.782013,168.660187 255.143875,170.632416 
	C256.528961,172.889572 259.474854,172.058716 260.127716,174.734818 
	C255.511383,177.664658 249.548355,174.837936 244.962158,177.925964 
	C245.854065,180.500565 249.373184,180.815887 249.360046,184.003738 
	C243.706924,185.678848 238.905121,180.173630 232.334152,181.974472 
	C239.531357,187.343765 246.672409,190.278046 254.638809,190.771484 
	C263.277832,191.306595 271.942902,191.445557 280.598755,191.677765 
	C290.759186,191.950333 300.848816,192.889282 311.766876,194.685944 
M228.230972,161.234085 
	C230.744781,156.745544 235.226837,153.560349 238.851562,150.805984 
	C245.078201,146.074478 240.826904,143.611160 238.674622,140.505234 
	C236.003998,136.651276 232.193069,133.881561 228.261459,131.334930 
	C224.087738,128.631500 219.584946,128.167450 214.891571,129.395172 
	C211.738327,130.220032 209.736313,132.230820 211.090958,135.619751 
	C214.826248,144.964340 209.750366,151.692810 202.018478,156.210129 
	C200.274139,157.229263 197.776764,157.398636 196.977371,160.254730 
	C203.743103,165.657135 211.542496,167.488129 220.059326,167.808212 
	C224.730026,167.983734 227.343155,166.579453 228.230972,161.234085 
z"/>
<path fill="#000000" opacity="1.000000" stroke="none" 
	d="
M296.218567,124.758301 
	C290.308105,126.048820 284.820007,128.841354 278.385437,127.078629 
	C274.498199,125.095474 271.044617,123.097099 267.500793,121.274124 
	C264.016327,119.481697 262.804688,117.200829 265.374878,113.758156 
	C265.670197,113.362587 265.850830,112.882782 266.097961,112.449661 
	C275.562531,95.864021 285.505951,93.286240 301.732391,103.400269 
	C306.049988,106.091461 310.096252,109.217941 315.162018,112.772530 
	C308.327057,117.048332 302.375458,120.771492 296.218567,124.758301 
z"/>
</svg>